<svg width="640" height="480" viewBox="0 0 640 480" fill="none" xmlns="http://www.w3.org/2000/svg">
  <rect width="640" height="480" rx="40" fill="url(#bg)"/>
  <circle cx="500" cy="110" r="110" fill="url(#glow)" fill-opacity=".65"/>
  <circle cx="150" cy="380" r="90" fill="#FFFFFF" fill-opacity=".35"/>
  <g filter="url(#shadow)">
    <rect x="228" y="70" width="184" height="340" rx="36" fill="#0F172A"/>
    <rect x="238" y="80" width="164" height="320" rx="30" fill="url(#screen)"/>
    <rect x="286" y="95" width="68" height="8" rx="4" fill="#CBD5E1" fill-opacity=".9"/>
    <circle cx="370" cy="116" r="10" fill="#111827"/>
    <circle cx="370" cy="116" r="5" fill="#475569"/>
    <path d="M269 335C295 294 340 248 382 223C360 278 326 329 286 362L269 335Z" fill="#F8FAFC" fill-opacity=".72"/>
  </g>
  <defs>
    <linearGradient id="bg" x1="58" y1="34" x2="566" y2="454" gradientUnits="userSpaceOnUse">
      <stop stop-color="#E0F2FE"/>
      <stop offset=".55" stop-color="#F8FAFC"/>
      <stop offset="1" stop-color="#BAE6FD"/>
    </linearGradient>
    <radialGradient id="glow" cx="0" cy="0" r="1" gradientUnits="userSpaceOnUse" gradientTransform="translate(500 110) rotate(90) scale(110)">
      <stop stop-color="#FFFFFF"/>
      <stop offset="1" stop-color="#38BDF8" stop-opacity="0"/>
    </radialGradient>
    <linearGradient id="screen" x1="251" y1="88" x2="376" y2="388" gradientUnits="userSpaceOnUse">
      <stop stop-color="#F8FAFC"/>
      <stop offset=".48" stop-color="#DBEAFE"/>
      <stop offset="1" stop-color="#7DD3FC"/>
    </linearGradient>
    <filter id="shadow" x="188" y="42" width="264" height="408" filterUnits="userSpaceOnUse" color-interpolation-filters="sRGB">
      <feDropShadow dx="0" dy="20" stdDeviation="20" flood-color="#0F172A" flood-opacity=".18"/>
    </filter>
  </defs>
</svg>
